<svg width="24" height="23" viewBox="0 0 24 23" fill="none" xmlns="http://www.w3.org/2000/svg">
  <path
    d="M7.07788 1.66821H11.1208C11.1644 1.66821 11.2063 1.6853 11.2371 1.71606C11.2678 1.74683 11.2849 1.78876 11.2849 1.83228V7.98462C11.2849 8.54717 11.5082 9.08684 11.906 9.48462C12.3038 9.8824 12.8435 10.1057 13.406 10.1057H19.5583C19.6019 10.1057 19.6438 10.1228 19.6746 10.1536C19.7053 10.1843 19.7224 10.2263 19.7224 10.2698V18.5315C19.7224 19.2743 19.4273 19.9867 18.9021 20.512C18.3769 21.0372 17.6644 21.3323 16.9216 21.3323H7.07788C6.33507 21.3323 5.62266 21.0372 5.09741 20.512C4.57216 19.9867 4.2771 19.2743 4.2771 18.5315V4.46899C4.2771 3.72618 4.57216 3.01377 5.09741 2.48853C5.62266 1.96328 6.33507 1.66821 7.07788 1.66821ZM8.48413 15.7073C8.29454 15.7073 8.11233 15.7822 7.97827 15.9163C7.84421 16.0503 7.76929 16.2325 7.76929 16.4221C7.76929 16.6117 7.84421 16.7939 7.97827 16.928C8.11233 17.062 8.29454 17.137 8.48413 17.137H15.5154C15.705 17.137 15.8872 17.062 16.0212 16.928C16.1553 16.7939 16.2302 16.6117 16.2302 16.4221C16.2302 16.2325 16.1553 16.0503 16.0212 15.9163C15.8872 15.7822 15.705 15.7073 15.5154 15.7073H8.48413ZM8.48413 12.1917C8.29454 12.1917 8.11233 12.2666 7.97827 12.4006C7.84421 12.5347 7.76929 12.7169 7.76929 12.9065C7.76929 13.0961 7.84421 13.2783 7.97827 13.4124C8.11233 13.5464 8.29454 13.6213 8.48413 13.6213H15.5154C15.705 13.6213 15.8872 13.5464 16.0212 13.4124C16.1553 13.2783 16.2302 13.0961 16.2302 12.9065C16.2302 12.7169 16.1553 12.5347 16.0212 12.4006C15.8872 12.2666 15.705 12.1917 15.5154 12.1917H8.48413Z"
    fill="white" stroke="#4FD1C5" stroke-width="0.0234375" />
  <path
    d="M12.8053 2.20636C12.82 2.20927 12.8337 2.21726 12.8444 2.22784L19.1637 8.54718C19.1743 8.55783 19.1823 8.57151 19.1852 8.58624C19.1881 8.60094 19.186 8.61635 19.1803 8.63019C19.1746 8.64392 19.1653 8.65603 19.153 8.66437C19.1405 8.67274 19.125 8.677 19.11 8.67706H13.4059C13.2225 8.67706 13.0463 8.60458 12.9166 8.47491C12.787 8.34525 12.7145 8.16901 12.7145 7.98566V2.28156C12.7145 2.26671 12.719 2.25193 12.7272 2.23956C12.7355 2.22715 12.7476 2.21699 12.7614 2.21124C12.7752 2.20553 12.7906 2.2035 12.8053 2.20636Z"
    fill="white" stroke="#4FD1C5" stroke-width="0.0234375" />
</svg>