<svg viewBox="0 0 24.5 8.52173" xmlns="http://www.w3.org/2000/svg" xmlns:xlink="http://www.w3.org/1999/xlink"
  width="24.500000" height="8.521729" fill="none" customFrame="#000000">
  <g id="Visa Icon">
    <path id="Vector"
      d="M12.6708 2.72436C12.6568 3.91141 13.653 4.57385 14.4034 4.96771C15.1744 5.37186 15.4333 5.631 15.4304 5.99233C15.4245 6.54545 14.8153 6.78949 14.2452 6.79899C13.2505 6.81561 12.6723 6.50976 12.2125 6.27839L11.8542 8.08427C12.3155 8.31333 13.1696 8.51303 14.0554 8.52174C16.1345 8.52174 17.4947 7.41629 17.5021 5.70231C17.5102 3.52712 14.7087 3.40665 14.7278 2.43434C14.7344 2.13957 14.9956 1.82495 15.568 1.74492C15.8512 1.70455 16.6332 1.67361 17.5198 2.11338L17.8677 0.366151C17.391 0.179117 16.7782 0 16.0153 0C14.0583 0 12.6819 1.12049 12.6708 2.72436ZM21.2115 0.150551C20.8319 0.150551 20.5118 0.389109 20.3691 0.755194L17.3991 8.39336L19.4767 8.39336L19.8901 7.16269L22.429 7.16269L22.6689 8.39336L24.5 8.39336L22.902 0.150551L21.2115 0.150551ZM21.5021 2.37727L22.1016 5.47247L20.4596 5.47247L21.5021 2.37727ZM10.1518 0.150551L8.51418 8.39336L10.4939 8.39336L12.1308 0.150551L10.1518 0.150551ZM7.22303 0.150551L5.16233 5.7609L4.32878 0.99052C4.23097 0.458051 3.84472 0.150551 3.41579 0.150551L0.0471011 0.150551L0 0.389901C0.691574 0.551535 1.47729 0.812261 1.95326 1.09119C2.24457 1.26154 2.32775 1.4105 2.42336 1.81545L4.00214 8.39336L6.0945 8.39336L9.3021 0.150551L7.22303 0.150551Z"
      fill="rgb(66.9526,24.4375,255)" fill-rule="evenodd" />
  </g>
</svg>